<svg xmlns="http://www.w3.org/2000/svg" viewBox="0 0 275.85 512">
  <style>
    @media (prefers-color-scheme:light){path{fill:#000}}@media (prefers-color-scheme:dark){path{fill:#fff}}
  </style>
  <path d="M0 512V0h133.75c24.87.15 50.52 4.83 71.75 18.46 44.48 27.97 60.46 81.18 59.21 131.31 1.23 66.99-24.62 127.28-93.34 146.98L275.86 512h-60.54L113.55 300H54.01v212H0Zm55-260h79.53c7.9 0 15.8-1.15 23.72-3.49 15.67-4.57 28.62-14.64 36.97-28.6 21.73-36.13 21.78-102.59 0-138.82-8.35-13.96-21.3-24.03-36.97-28.6-7.91-2.32-15.82-3.49-23.72-3.49H55v203Z"/>
</svg>
